<?xml version="1.0" encoding="UTF-8"?>
<svg id="Layer_1" data-name="Layer 1" xmlns="http://www.w3.org/2000/svg" viewBox="0 0 3003.72 502.86">
  <defs>
    <style>
      .cls-1 {
        fill: #fff;
      }

      .cls-2 {
        fill: #151515;
      }

      .cls-3 {
        fill: #747474;
      }
    </style>
  </defs>
  <g>
    <rect class="cls-1" x="-.24" y="1.37" width="503.22" height="503.22"/>
    <g>
      <g>
        <polygon class="cls-3" points="305.85 253.1 249.63 309.55 305.85 366.01 362.3 422.22 418.76 366.01 362.3 309.55 305.85 253.1"/>
        <polygon class="cls-3" points="418.76 140.43 362.3 83.98 305.85 140.43 249.63 196.88 305.85 253.1 362.3 196.88 418.76 140.43"/>
      </g>
      <polygon class="cls-2" points="249.63 196.88 193.18 140.43 136.97 83.98 80.51 140.43 136.97 196.88 193.18 253.1 136.97 309.55 80.51 366.01 136.97 422.22 193.18 366.01 249.63 309.55 305.85 253.1 249.63 196.88"/>
    </g>
    <g>
      <g>
        <path class="cls-1" d="M122.69,354.75l-11.01,11.01,25.81,25.81,4.74-4.74-10.89-10.89,6.27-6.27c4.14-4.14,4.14-10.81,0-14.95-4.1-4.06-10.77-4.06-14.91.04ZM132.9,364.96l-6.27,6.27-5.47-5.47,6.27-6.27c1.53-1.53,3.98-1.53,5.47,0,1.49,1.49,1.49,3.94,0,5.47Z"/>
        <path class="cls-1" d="M159.59,332.8c-4.14-4.14-10.81-4.14-14.95,0l-11.01,11.01,25.81,25.81,4.74-4.74-10.89-10.89,3.5-3.5,16.68,5.1,5.1-5.1-17.2-5.23c2.21-4.02,1.57-9.08-1.77-12.46ZM154.84,343.01l-6.23,6.23-5.47-5.47,6.23-6.23c1.53-1.53,3.98-1.53,5.47,0,1.53,1.49,1.53,3.94,0,5.47Z"/>
        <rect class="cls-1" x="169.02" y="312.6" width="6.71" height="36.5" transform="translate(-183.46 218.79) rotate(-45)"/>
        <polygon class="cls-1" points="215.78 313.34 215.78 313.34 215.78 313.34 235 294.17 230.25 289.39 215.78 303.86 209.99 298.03 222.58 285.45 217.79 280.7 205.21 293.29 199.46 287.5 213.89 273.07 209.15 268.32 189.94 287.5 215.78 313.34"/>
        <polygon class="cls-1" points="171.24 315.71 184.79 302.17 187.56 332.07 192.31 336.82 211.52 317.64 206.78 312.9 193.23 326.41 190.42 296.54 185.68 291.8 166.46 310.97 171.24 315.71"/>
      </g>
      <polygon class="cls-1" points="212.64 264.86 212.47 265.03 212.64 265.2 213.2 265.76 213.37 265.93 213.54 265.76 214.96 264.35 218.49 267.89 218.67 268.06 218.84 267.89 219.45 267.27 219.62 267.1 219.45 266.93 215.91 263.39 217.33 261.97 217.5 261.8 217.33 261.63 216.77 261.07 216.6 260.9 216.43 261.07 212.64 264.86"/>
      <polygon class="cls-1" points="221.55 255.95 220.56 256.94 220.44 257.06 220.52 257.21 222.6 261.55 218.26 259.46 218.11 259.39 217.99 259.51 216.98 260.52 216.81 260.69 216.98 260.86 221.25 265.13 221.42 265.3 221.59 265.13 222.2 264.52 222.37 264.35 222.2 264.18 219.57 261.54 223.25 263.25 223.4 263.32 223.52 263.2 224.23 262.49 224.35 262.37 224.28 262.22 222.57 258.54 225.2 261.18 225.37 261.35 225.54 261.18 226.16 260.56 226.33 260.39 226.16 260.22 221.89 255.95 221.72 255.78 221.55 255.95"/>
    </g>
  </g>
  <rect class="cls-1" x="1931.92" y="1.88" width="18.39" height="500"/>
  <g>
    <path class="cls-1" d="M730.72,82.15c4.77,6.48,7.05,13.72,7.05,21.73,0,11.25-4.19,20.97-12.58,29.16-8.58,8.2-20.2,12.39-34.88,12.39h-.38l-54.71-.19V2.28h57.57c12.39,0,22.11,3.05,28.78,9.34,6.67,6.29,9.91,13.92,9.91,22.87,0,6.86-1.91,13.34-5.53,19.44-3.81,6.29-9.15,10.87-16.01,13.92,8.96,3.05,16.01,7.81,20.78,14.3ZM685.92,62.14c8.58,0,15.44-2.29,20.4-7.05,4.96-4.77,7.43-10.1,7.43-16.39,0-5.72-2.1-10.67-6.29-14.68-4.38-4-10.48-6.1-18.3-6.1h-36.6v44.22h33.36ZM689.55,129.61c9.72,0,17.16-2.67,22.3-7.81s7.82-11.25,7.82-18.3-2.48-13.34-7.62-18.49c-5.15-5.15-12.2-7.62-20.97-7.62h-38.5v52.23h36.98Z"/>
    <path class="cls-1" d="M869.48,94.73c0,17.54-4.96,30.88-15.06,40.22-10.1,9.34-23.25,13.91-39.84,13.91s-30.12-4.57-40.41-13.91c-10.29-9.34-15.44-22.68-15.44-40.22V2.28h17.54v91.11c0,13.15,3.62,22.87,10.87,29.35,7.24,6.67,16.39,9.91,27.45,9.91s20.4-3.05,27.45-9.15c7.05-5.91,10.48-15.25,10.48-27.64V2.28h16.96v92.45Z"/>
    <path class="cls-1" d="M899.03,145.24V2.28h17.54v142.96h-17.54Z"/>
    <path class="cls-1" d="M948.01,145.24V2.28h17.54v127.14h72.24v15.82h-89.78Z"/>
    <path class="cls-1" d="M1102.6,2.28c15.06,0,28.21,3.24,39.08,9.72,10.87,6.67,18.68,15.06,23.83,25.35,5.15,10.29,7.62,21.73,7.62,34.31,0,9.34-1.52,18.49-4.57,27.07-3.05,8.58-7.43,16.39-13.15,23.45s-13.15,12.58-22.49,16.77c-9.34,4.19-19.82,6.29-31.45,6.29h-43.65V2.28h44.79ZM1101.26,129.42c16.96,0,30.12-5.53,39.46-16.77,9.34-11.06,14.11-24.4,14.11-40.03s-4.57-28.4-13.91-38.88c-9.34-10.48-22.3-15.82-39.27-15.82h-26.3v111.51h25.92Z"/>
    <path class="cls-1" d="M747.11,323.96l-34.31-114.94-34.5,114.94h-17.16l-37.36-142.96h18.68l28.02,115.89,34.12-115.89h17.16l34.12,116.27,28.02-116.27h17.73l-37.36,142.96h-17.16Z"/>
    <path class="cls-1" d="M821.64,323.96v-142.96h17.54v142.96h-17.54Z"/>
    <path class="cls-1" d="M923.42,196.63v127.33h-17.54v-127.33h-48.61v-15.63h114.75v15.63h-48.61Z"/>
    <path class="cls-1" d="M1082.2,323.96v-64.24h-75.48v64.24h-17.54v-142.96h17.54v63.09h75.48v-63.09h17.54v142.96h-17.54Z"/>
    <path class="cls-1" d="M1286.34,323.96h-16.2v-19.44c-4.19,7.43-10.29,12.96-18.11,16.96-8.01,4.19-17.35,6.1-28.02,6.1-13.91,0-25.92-3.43-36.03-10.48-10.29-7.05-17.92-16.01-22.68-27.26-4.96-11.05-7.43-23.25-7.43-36.79s2.48-25.92,7.43-37.17c4.76-11.25,12.58-20.4,23.25-27.64,10.48-7.05,23.25-10.67,37.93-10.67,16.2,0,29.74,4.19,40.79,12.58,11.06,8.39,17.35,20.4,19.06,35.83h-18.49c-1.33-9.91-5.53-17.73-12.77-23.64-7.43-5.72-16.58-8.58-27.83-8.58-15.82,0-28.4,5.53-37.55,16.77-9.34,11.25-13.92,25.16-13.92,41.93s4.38,30.12,13.15,41.55c8.58,11.44,20.78,17.15,36.41,17.15,12.58,0,23.06-3.81,31.64-11.63,8.58-7.62,12.77-18.3,12.77-32.02h-48.22v-15.63h64.81v72.05Z"/>
    <path class="cls-1" d="M1315.88,181h91.88v15.63h-74.34v47.08h70.91v15.82h-70.91v48.61h78.15v15.82h-95.69v-142.96Z"/>
    <path class="cls-1" d="M1553.38,323.96v-116.66l-44.98,116.66h-13.34l-44.79-116.66v116.66h-16.77v-142.96h25.16l43.27,113.6,43.65-113.6h24.97v142.96h-17.16Z"/>
    <path class="cls-1" d="M1601.99,323.96v-142.96h17.54v142.96h-17.54Z"/>
    <path class="cls-1" d="M1741.7,323.96l-73.77-116.08v116.08h-16.96v-142.96h20.97l70.91,113.03v-113.03h16.96v142.96h-18.11Z"/>
    <path class="cls-1" d="M1791.26,323.96v-142.96h17.54v142.96h-17.54Z"/>
    <path class="cls-1" d="M704.6,429.28l51.08,73.39-33.36.19-33.55-50.13-33.55,49.94h-32.4l50.7-72.62-48.99-70.34h33.36l31.45,46.89,31.26-46.89h32.4l-48.42,69.57Z"/>
    <path class="cls-1" d="M773.8,359.71h58.14c14.87,0,26.5,4.19,34.69,12.39,8.2,8.2,12.2,18.3,12.2,30.31s-4.38,23.25-12.96,32.21c-8.77,8.96-20.97,13.34-36.41,13.34h-29.35v54.71h-26.3v-142.96ZM800.1,423.18h30.12c14.49,0,21.92-8.01,21.92-19.44s-7.24-19.25-20.97-19.25h-31.07v38.69Z"/>
    <path class="cls-1" d="M984.04,502.67l-37.55-56.99h-21.35v56.99h-26.3v-142.96h55.85c15.25,0,27.07,4,35.26,12.2s12.39,18.11,12.39,29.35c0,17.35-10.1,33.36-27.64,39.27l40.79,62.14h-31.45ZM925.14,421.28h28.59c13.92,0,22.11-8.77,22.11-18.87s-6.29-17.92-20.01-17.92h-30.69v36.79Z"/>
    <path class="cls-1" d="M1057.23,502.67h-26.5v-142.96h26.5v142.96Z"/>
    <path class="cls-1" d="M1194.85,502.67h-114.75v-24.97l77.77-93.21h-75.29v-24.78h108.27v24.78l-77.58,93.21h81.58v24.97Z"/>
    <path class="cls-1" d="M1214.87,502.67v-142.96h96.07v24.78h-69.57v33.36h66.14v24.97h-66.14v34.88h73.39v24.97h-99.88Z"/>
  </g>
  <path class="cls-1" d="M2566.81,209.6c-21.26-1.59-40.64,7.57-51.97,25.83-8.26,13.32-10.95,28.7-8.74,44.44,3.05,21.66,17.49,39.76,38.62,46.23,13.82,4.23,28.25,3.32,41.73-1.44,11.76-5.34,20.89-13.84,27.39-25.56l-19.45-9.5c-3.36,5.34-7.4,9.54-12.76,13.58-15.12,7.93-33.59,5.31-44.67-7.45-5.27-6.07-7.31-13.74-8.17-21.52h86.83c3.59-33.24-14.43-62.03-48.8-64.61ZM2530.17,256.38c1.91-8.96,6.53-16.05,13.46-21.16,5.98-4.25,12.82-5.66,20.14-5.43,15.15.47,27.37,11.74,28.7,26.62l-62.3-.03Z"/>
  <path class="cls-1" d="M2179.69,141.52l2.29,3.12c12.22,47.78,49.34,84.73,97.25,96.87,1.74.44,3.11,3.24,3,4.63-.17,2.11-1.6,3.91-3.95,4.52-47.19,12.28-83.63,48.66-96.07,95.69-.52,1.97-2.2,3.59-3.77,3.94-1.8.4-4.86-.8-5.4-2.89-12.23-47.77-49.22-84.79-97.17-96.97l-3.12-2.5v-3.69s2.77-2.7,2.77-2.7c48.31-12.09,85.74-49.64,97.69-97.77l2.76-2.24h3.71Z"/>
  <path class="cls-1" d="M2470.82,261.47l-54.02-.05v-21.27s76.83,0,76.83,0c5.68,33.18-8.41,65.63-39.06,80.48-10.84,5.25-21.92,7.52-33.96,8.05-32.66,1.43-62.84-15.84-77.73-44.89-5.86-11.44-8.31-23.47-8.54-36.47-.63-35.12,20.88-66.35,54.12-78.22,29.27-10.45,66.26-4.34,87.68,19.37l-16.78,16.49c-5.22-5.65-10.5-9.52-17.01-12.65-15.4-6.73-32.92-7.03-48.25-.62-22.26,9.31-34.8,29.66-35.42,53.29-.79,30.23,19.66,56.23,50.21,60.29,29.74,3.96,58.46-11.53,61.94-43.81Z"/>
  <path class="cls-1" d="M2726.39,261.5l-.2,63.74h-23.59s-.18-72.36-.18-72.36c-.02-6.75-3.02-13.58-8.34-17.37-7.68-5.48-18.72-5.85-26.62-.52-8.86,5.97-14.05,16.26-14.09,27.17l-.21,63.07-23.81.04v-112.14s22.44-.03,22.44-.03l.34,16.21c9.64-14.11,24.38-21.39,41.07-19.51,12.71,1.43,23.46,9,28.54,20.47,13.1-19,32.61-24.71,54.33-18.21,15.02,5.46,23.01,22.19,23.03,37.67l.1,75.52h-23.61s-.13-71.8-.13-71.8c-.01-6.31-2.5-13.16-7.26-17.11-9.17-7.6-22.82-6.47-31.47,1.63-6.27,5.87-10.3,14.29-10.33,23.54Z"/>
  <path class="cls-1" d="M2927.91,238.35c-8.26-8.02-21.51-9.34-31.24-3.65-9.93,5.81-14.82,15.93-15.94,27.17l-.03,63.38h-23.78s0-112.13,0-112.13l22.39-.02.42,16.22c10.17-15.18,26.19-21.48,43.63-19.45,23.07,2.69,33.74,20.47,34.33,42.99v72.39s-23.59,0-23.59,0v-70.65c-.77-5.89-1.51-11.7-6.18-16.23Z"/>
  <polygon class="cls-1" points="2839.48 325.26 2815.66 325.23 2815.66 213.12 2839.48 213.09 2839.48 325.26"/>
  <polygon class="cls-1" points="2998.26 325.14 2974.44 325.28 2974.44 213.11 2998.26 213.1 2998.26 325.14"/>
  <path class="cls-1" d="M2981.88,165.29c8.91-2.48,17.65,2.74,19.99,11.01s-2.6,17.43-11.53,19.79c-7.95,2.1-16.75-2.27-19.34-10.59-2.59-8.3,1.45-17.58,10.89-20.21Z"/>
  <path class="cls-1" d="M2822.73,165.41c8.95-2.76,17.58,2.3,20.24,10.63,2.62,8.19-2.29,17.25-10.62,19.83s-17.09-1.78-19.9-9.62c-3.09-8.61.92-17.95,10.28-20.84Z"/>
</svg>