<?xml version="1.0" encoding="UTF-8"?>
<svg id="Layer_1" data-name="Layer 1" xmlns="http://www.w3.org/2000/svg" viewBox="0 0 2723.77 150.01">
  <defs>
    <style>
      .cls-1 {
        fill: #fff;
      }
    </style>
  </defs>
  <g>
    <path class="cls-1" d="M2113.63,73l51.08,73.39-33.36.19-33.55-50.13-33.55,49.94h-32.4l50.7-72.62-48.99-70.34h33.36l31.45,46.89,31.26-46.89h32.4l-48.42,69.57Z"/>
    <path class="cls-1" d="M2182.82,3.43h58.14c14.87,0,26.5,4.19,34.69,12.39s12.2,18.3,12.2,30.31-4.38,23.25-12.96,32.21c-8.77,8.96-20.97,13.34-36.41,13.34h-29.35v54.71h-26.3V3.43ZM2209.12,66.9h30.12c14.49,0,21.92-8.01,21.92-19.44s-7.24-19.25-20.97-19.25h-31.07v38.69Z"/>
    <path class="cls-1" d="M2393.06,146.39l-37.55-56.99h-21.35v56.99h-26.3V3.43h55.85c15.25,0,27.07,4,35.26,12.2s12.39,18.11,12.39,29.35c0,17.35-10.1,33.36-27.64,39.27l40.79,62.14h-31.45ZM2334.16,65h28.59c13.92,0,22.11-8.77,22.11-18.87s-6.29-17.92-20.01-17.92h-30.69v36.79Z"/>
    <path class="cls-1" d="M2466.26,146.39h-26.5V3.43h26.5v142.96Z"/>
    <path class="cls-1" d="M2603.88,146.39h-114.75v-24.97l77.77-93.21h-75.29V3.43h108.27v24.78l-77.58,93.21h81.58v24.97Z"/>
    <path class="cls-1" d="M2623.89,146.39V3.43h96.07v24.78h-69.57v33.36h66.14v24.97h-66.14v34.88h73.39v24.97h-99.88Z"/>
  </g>
  <g>
    <path class="cls-1" d="M95.5,83.3c4.77,6.48,7.05,13.72,7.05,21.73,0,11.25-4.19,20.97-12.58,29.16-8.58,8.2-20.2,12.39-34.88,12.39h-.38L0,146.39V3.43h57.57c12.39,0,22.11,3.05,28.78,9.34,6.67,6.29,9.91,13.92,9.91,22.87,0,6.86-1.91,13.34-5.53,19.44-3.81,6.29-9.15,10.87-16.01,13.92,8.96,3.05,16.01,7.81,20.78,14.3ZM50.7,63.28c8.58,0,15.44-2.29,20.4-7.05s7.43-10.1,7.43-16.39c0-5.72-2.1-10.67-6.29-14.68-4.38-4-10.48-6.1-18.3-6.1H17.35v44.22h33.36ZM54.33,130.76c9.72,0,17.16-2.67,22.3-7.81s7.82-11.25,7.82-18.3-2.48-13.34-7.62-18.49-12.2-7.62-20.97-7.62H17.35v52.23h36.98Z"/>
    <path class="cls-1" d="M234.26,95.88c0,17.54-4.96,30.88-15.06,40.22-10.1,9.34-23.25,13.91-39.84,13.91s-30.12-4.57-40.41-13.91c-10.29-9.34-15.44-22.68-15.44-40.22V3.43h17.54v91.11c0,13.15,3.62,22.87,10.87,29.35,7.24,6.67,16.39,9.91,27.45,9.91s20.4-3.05,27.45-9.15c7.05-5.91,10.48-15.25,10.48-27.64V3.43h16.96v92.45Z"/>
    <path class="cls-1" d="M263.81,146.39V3.43h17.54v142.96h-17.54Z"/>
    <path class="cls-1" d="M312.79,146.39V3.43h17.54v127.14h72.24v15.82h-89.78Z"/>
    <path class="cls-1" d="M467.38,3.43c15.06,0,28.21,3.24,39.08,9.72,10.87,6.67,18.68,15.06,23.83,25.35s7.62,21.73,7.62,34.31c0,9.34-1.52,18.49-4.57,27.07s-7.43,16.39-13.15,23.45-13.15,12.58-22.49,16.77c-9.34,4.19-19.82,6.29-31.45,6.29h-43.65V3.43h44.79ZM466.04,130.57c16.96,0,30.12-5.53,39.46-16.77,9.34-11.06,14.11-24.4,14.11-40.03s-4.57-28.4-13.91-38.88-22.3-15.82-39.27-15.82h-26.3v111.51h25.92Z"/>
    <path class="cls-1" d="M704.11,146.39l-34.31-114.94-34.5,114.94h-17.16L580.79,3.43h18.68l28.02,115.89L661.61,3.43h17.16l34.12,116.27,28.02-116.27h17.73l-37.36,142.96h-17.16Z"/>
    <path class="cls-1" d="M778.64,146.39V3.43h17.54v142.96h-17.54Z"/>
    <path class="cls-1" d="M880.42,19.06v127.33h-17.54V19.06h-48.61V3.43h114.75v15.63h-48.61Z"/>
    <path class="cls-1" d="M1039.2,146.39v-64.24h-75.48v64.24h-17.54V3.43h17.54v63.09h75.48V3.43h17.54v142.96h-17.54Z"/>
    <path class="cls-1" d="M1243.34,146.39h-16.2v-19.44c-4.19,7.43-10.29,12.96-18.11,16.96-8.01,4.19-17.35,6.1-28.02,6.1-13.91,0-25.92-3.43-36.03-10.48-10.29-7.05-17.92-16.01-22.68-27.26-4.96-11.06-7.43-23.25-7.43-36.79s2.48-25.92,7.43-37.17c4.76-11.25,12.58-20.4,23.25-27.64C1156.04,3.62,1168.81,0,1183.49,0c16.2,0,29.74,4.19,40.79,12.58s17.35,20.4,19.06,35.83h-18.49c-1.33-9.91-5.53-17.73-12.77-23.64-7.43-5.72-16.58-8.58-27.83-8.58-15.82,0-28.4,5.53-37.55,16.77-9.34,11.25-13.92,25.16-13.92,41.93s4.38,30.12,13.15,41.55c8.58,11.44,20.78,17.16,36.41,17.16,12.58,0,23.06-3.81,31.64-11.63,8.58-7.62,12.77-18.3,12.77-32.02h-48.22v-15.63h64.81v72.05Z"/>
    <path class="cls-1" d="M1272.89,3.43h91.88v15.63h-74.34v47.08h70.91v15.82h-70.91v48.61h78.15v15.82h-95.69V3.43Z"/>
    <path class="cls-1" d="M1510.39,146.39V29.73l-44.98,116.66h-13.34l-44.79-116.66v116.66h-16.77V3.43h25.16l43.27,113.61,43.65-113.61h24.97v142.96h-17.16Z"/>
    <path class="cls-1" d="M1558.99,146.39V3.43h17.54v142.96h-17.54Z"/>
    <path class="cls-1" d="M1698.71,146.39l-73.77-116.08v116.08h-16.96V3.43h20.97l70.91,113.03V3.43h16.96v142.96h-18.11Z"/>
    <path class="cls-1" d="M1748.26,146.39V3.43h17.54v142.96h-17.54Z"/>
  </g>
  <rect class="cls-1" x="1894.59" y="3.43" width="10.19" height="142.96"/>
</svg>