<svg width="444" height="31" viewBox="0 0 444 31" fill="none" xmlns="http://www.w3.org/2000/svg">
<path d="M163.627 0C163.779 0.0307695 164.248 0.100507 164.297 0.211444C166.612 5.48408 168.803 10.1687 174.254 12.9312C175.285 13.4537 178.925 14.7812 179.278 15.3799C178.907 16.4919 175.457 17.1618 174.366 17.8284C168.562 21.3732 166.402 24.9123 164.469 31C163.668 30.8209 163.595 30.5065 163.317 29.8044C161.608 25.4719 159.789 21.9611 155.898 19.2639C153.112 17.3335 150.801 16.6748 147.742 15.4339C149.482 14.6401 151.398 14.2171 153.269 13.1936C159.292 9.89903 161.607 6.20782 163.627 0Z" fill="white"/>
<path d="M0.0596407 4.46854C3.95152 4.4436 11.1631 3.74606 13.8509 6.68581C16.8309 9.94476 15.3632 13.3661 12.4567 15.7263C14.3094 16.8548 15.5302 17.6907 16.0885 19.9707C17.0664 23.9647 13.7495 27.4237 9.80848 27.4622C7.20784 26.3253 1.64776 28.0864 0 26.3733C0.22651 19.3033 0.035239 11.5932 0.0596407 4.46854ZM3.47944 24.4332C5.92606 24.4765 9.7585 24.9193 11.6053 23.4633C12.7347 22.1503 13.5959 20.0036 12.0004 18.7107C9.785 16.9154 6.18344 17.3299 3.48949 17.3549L3.47944 24.4332ZM3.47989 14.207C5.85934 14.2541 9.41249 14.6796 11.2141 13.2359C14.6641 7.18429 7.01242 7.79338 3.49224 7.81906L3.47989 14.207Z" fill="white"/>
<path d="M373.448 3.62471C377.157 3.70062 383.806 3.15837 386.931 4.46632C392.573 6.82615 392.233 14.9134 386.251 17.1947C388.54 20.3933 390.973 24.3062 393.157 27.6338L388.258 27.6807C387.452 27.5381 382.164 19.0797 381.641 17.9333L377.977 17.9671L377.952 27.6692L373.435 27.6633L373.448 3.62471ZM377.97 13.9585C380.607 13.9944 383.43 14.3189 385.739 13.0593C388.837 6.87571 381.789 7.68301 377.984 7.70824L377.97 13.9585Z" fill="white"/>
<path d="M352.602 3.64611C358.447 3.74787 369.843 1.72459 370.235 10.3392C370.33 12.3973 369.607 14.409 368.221 15.9354C366.358 17.9581 364.143 18.4066 361.527 18.5122L357.007 18.4967L357.009 27.671L352.564 27.6728C352.69 19.7734 352.568 11.5756 352.602 3.64611ZM357.002 14.2097C359.37 14.252 362.825 14.5926 364.792 13.4695C368.53 6.6259 360.495 8.14838 357.093 7.68774C356.903 9.59653 356.991 12.2369 357.002 14.2097Z" fill="white"/>
<path d="M65.4138 4.46674L68.7992 4.4762L68.7735 27.6683C67.8224 27.6762 66.8714 27.6714 65.9205 27.6545C65.2822 27.1734 65.9208 26.7315 65.5265 25.6014C63.4175 25.7802 63.2776 30.4184 55.9158 26.9869C46.0659 19.7892 57.4264 3.84337 65.6152 13.7112C65.2737 11.2661 65.4039 7.03403 65.4138 4.46674ZM61.8347 24.8423C63.3053 24.2888 64.3765 23.3727 65.0353 21.9257C65.7056 20.4253 65.7522 18.7201 65.1651 17.1853C64.6671 15.8752 63.6624 14.8208 62.3777 14.2601C61.3182 13.7871 60.4533 13.8096 59.3224 13.9527C54.5157 16.2912 54.6493 20.7778 58.0412 24.358C59.5441 24.8774 60.2676 25.1427 61.8347 24.8423Z" fill="white"/>
<path d="M426.661 3.63818C431.837 3.76568 437.603 3.73297 442.78 3.65688L442.796 7.73861C439.407 7.56449 434.667 7.70617 431.172 7.69964C431.107 9.46585 431.158 11.5328 431.156 13.3222C434.838 13.2974 438.517 13.3005 442.197 13.3321L442.174 17.5637L431.535 17.5621L431.242 17.6468C431.037 18.5264 431.154 22.2744 431.17 23.3928L443.49 23.3977L443.479 27.668L426.634 27.6674C426.76 19.7527 426.659 11.5735 426.661 3.63818Z" fill="white"/>
<path d="M404.305 3.63681C409.943 3.87447 417 3.68382 422.709 3.65652L422.68 7.91548C421.35 9.21203 419.325 11.8094 418.05 13.3402L409.643 23.3948C414.206 23.3966 418.766 23.37 423.329 23.3153L423.34 27.6636L404.019 27.6634C403.992 26.3152 404.024 24.8635 404.03 23.5075C408.291 18.1775 412.851 12.9717 417.175 7.67761C412.984 7.63256 408.604 7.81164 404.328 7.78889C404.308 6.40494 404.299 5.02099 404.305 3.63681Z" fill="white"/>
<path d="M343.603 3.63303L349.123 3.67463C347.055 6.15761 342.871 12.4694 341.012 15.2977C342.008 17.0553 349.173 26.8527 349.263 27.5149L348.882 27.6465L343.95 27.6746C342.082 25.1558 340.05 21.9413 338.267 19.2923C337.021 21.1268 333.721 26.3364 332.493 27.6627L327.252 27.6395C329.807 23.7325 332.986 19.2132 335.739 15.4211C334.581 13.8617 328.043 4.95431 327.792 3.66447C329.509 3.61809 331.479 3.68132 333.218 3.69659C334.347 5.76364 336.94 9.41273 338.34 11.4961C340.115 8.88902 341.87 6.26776 343.603 3.63303Z" fill="white"/>
<path d="M197.064 3.60021C201.525 2.97581 204.726 3.95143 208.057 6.96107C207.241 7.5643 206.299 8.65609 205.589 9.42466C198.491 1.83669 186.213 11.383 192.175 20.5314C193.424 22.4386 195.379 23.7732 197.611 24.2429C202.595 25.2732 206.307 22.4864 207.275 17.6414L199.539 17.7054L199.436 17.6279C199.142 17.156 199.267 15.2636 199.278 14.5919L210.715 14.5881C210.818 17.7369 210.715 20.235 208.873 22.9772C205.316 28.2715 197.453 28.9572 192.402 25.5007C189.779 23.7421 187.964 21.0134 187.356 17.9158C186.757 14.6208 187.493 11.2226 189.402 8.47071C191.208 5.8945 193.965 4.14226 197.064 3.60021Z" fill="white"/>
<path d="M237.837 10.1464C240.938 9.8817 242.254 10.3721 244.07 12.8494C246.568 12.4428 247.702 7.07844 254.177 11.7234C256.214 15.4815 255.538 22.6164 255.482 27.159L252.183 27.157C252.158 24.5945 252.785 15.0591 251.131 14.096C243.991 9.93757 244.775 21.1211 244.795 23.2103L244.782 27.1599C243.605 27.1906 242.567 27.1518 241.397 27.1034C241.355 24.0469 242.094 15.2308 240.28 14.0937C232.414 9.15909 233.989 25.2921 233.969 27.1545L230.67 27.1534C230.454 22.1609 230.632 15.7356 230.661 10.6557C231.677 10.6388 232.844 10.5678 233.82 10.812C233.93 11.4497 233.921 11.8783 233.924 12.5136C234.221 12.6356 236.193 10.7471 237.837 10.1464Z" fill="white"/>
<path d="M90.5703 10.6636L94.1416 10.6814C95.37 14.7388 96.6449 18.7821 97.9661 22.8103C99.0857 18.7481 100.266 14.7028 101.506 10.676L105.098 10.7088C104.777 11.5189 104.267 13.302 103.984 14.1955C102.707 18.4661 101.18 22.9286 99.8236 27.2012L96.1947 27.2018C95.0048 23.4232 93.2302 18.6008 92.3377 14.8575C91.0408 18.9815 89.6324 23.0491 88.3746 27.1985L84.745 27.1991C84.608 26.5666 84.421 25.951 84.2108 25.3392C82.5464 20.4954 81.1902 15.5506 79.483 10.721C80.5832 10.6521 82.0922 10.6951 83.2237 10.6933C84.3706 14.7562 85.6986 18.8434 86.7195 22.9315C87.9044 18.904 89.314 14.6931 90.5703 10.6636Z" fill="white"/>
<path d="M219.123 10.1349C225.709 9.68077 228.678 13.2449 228.541 19.5898L215.702 19.5711C216.146 22.2974 217.676 24.622 220.799 24.6616C222.933 24.6884 223.987 23.6295 225.384 22.1976L225.544 22.089C226.452 22.2354 227.069 22.4159 227.626 23.1684C228.315 27.5841 215.705 30.9833 212.793 21.8647C212.026 19.4421 212.246 16.815 213.405 14.5534C214.754 11.9612 216.489 10.969 219.123 10.1349ZM221.042 17.0393L225.386 17.0226C224.289 14.3228 223.228 12.7458 219.931 13.0422C217.597 13.647 216.545 14.7219 215.869 17.0598L221.042 17.0393Z" fill="white"/>
<path d="M125.969 3.9659L129.392 3.95667C129.424 6.87954 129.473 10.2133 129.196 13.0916C129.475 12.7737 129.764 12.4649 130.062 12.1658C132.514 9.73642 136.731 9.28546 139.066 11.7975C141.79 14.7278 140.857 23.282 140.814 27.1978L137.36 27.1937L137.366 19.6106C137.422 15.1787 136.798 11.8693 131.358 13.9709C128.44 17.7829 129.395 22.5042 129.37 27.1939L125.946 27.1966L125.969 3.9659Z" fill="white"/>
<path d="M19.3538 11.1902L22.7638 11.2003C22.7721 13.0231 22.7619 14.8458 22.7329 16.6683C22.7074 18.5048 22.3726 22.8903 23.9381 24.1352C26.9087 26.497 30.386 23.7843 30.5653 20.2852C30.7212 17.2445 30.6451 14.2311 30.6435 11.1832L34.0205 11.1913L34.0354 16.3402C34.0523 20.119 34.0431 23.8978 34.0079 27.6764C28.6402 27.7886 31.7545 27.0858 30.5867 25.537C28.5659 27.2669 27.6826 28.2625 24.7916 28.2024C17.5281 28.0515 19.2761 16.1926 19.3538 11.1902Z" fill="white"/>
<path d="M271.596 10.1236C272.045 10.0919 272.491 10.0747 272.939 10.0725C280.888 10.0961 278.854 21.6987 278.811 27.1613L275.449 27.1576C275.49 24.0291 275.598 20.8542 275.508 17.7304C275.398 13.9856 273.363 12.3173 269.774 13.7596C266.554 16.6692 267.541 22.9502 267.561 27.1579L264.132 27.1549L264.141 10.6122C265.062 10.577 265.819 10.5471 266.739 10.6034C267.775 11.3661 266.876 11.0672 267.516 12.3248C268.063 12.2554 269.774 10.7904 271.596 10.1236Z" fill="white"/>
<path d="M115.872 6.00264L119.291 6.00241L119.287 10.6789L123.318 10.6915L123.322 13.6723L119.289 13.6702C119.314 16.0935 118.637 21.8185 120.103 23.8266C120.695 24.6378 122.114 24.0309 123.125 24.024L123.428 24.3262L123.426 25.4753C123.467 28.6421 119.724 27.407 117.79 26.7718C114.914 23.7073 115.837 18.1181 115.877 13.6664L112.983 13.665L112.991 10.6915L115.871 10.6714L115.872 6.00264Z" fill="white"/>
<path d="M395.673 3.63693C397.133 3.64966 398.594 3.65407 400.051 3.65015L400.027 27.6183C399.443 27.7068 396.419 27.6638 395.66 27.6647L395.673 3.63693Z" fill="white"/>
<path d="M45.5968 4.46774L49.0286 4.47768L49.0052 27.6699L45.6083 27.6726C45.504 19.9996 45.5912 12.1538 45.5968 4.46774Z" fill="white"/>
<path d="M281.474 10.6482L284.919 10.6559L284.895 27.159L281.477 27.1574L281.474 10.6482Z" fill="white"/>
<path d="M38.0587 11.1823L41.497 11.1884L41.4823 27.671L38.078 27.6724C37.9543 22.3366 38.0584 16.5519 38.0587 11.1823Z" fill="white"/>
<path d="M107.118 10.6651L110.44 10.6782L110.439 27.1969L107.095 27.196L107.118 10.6651Z" fill="white"/>
<path d="M258.639 10.6417L261.453 10.6708C261.459 15.4065 261.662 22.4136 261.405 26.9993L260.989 27.1556L258.062 27.1322C258.057 24.453 257.746 12.5262 258.197 10.791L258.639 10.6417Z" fill="white"/>
<path d="M304.164 3.59498C304.756 3.5825 305.033 3.55106 305.583 3.76018C306.072 5.05522 305.736 24.5853 305.707 27.6145C305.223 27.6854 304.562 27.7208 304.22 27.3822C303.988 25.0716 304.128 21.2457 304.137 18.767L304.164 3.59498Z" fill="white"/>
<path d="M107.924 3.66338C109.125 3.19904 110.475 3.78549 110.955 4.9793C111.435 6.17314 110.865 7.53073 109.678 8.02561C108.896 8.35155 107.999 8.23149 107.33 7.71161C106.661 7.19173 106.323 6.35221 106.447 5.51428C106.57 4.67613 107.134 3.96909 107.924 3.66338Z" fill="white"/>
<path d="M258.715 3.68526C259.483 3.30125 260.403 3.36876 261.108 3.86121C261.813 4.35368 262.192 5.19216 262.097 6.04676C262 6.90115 261.444 7.63479 260.648 7.95871C259.479 8.43376 258.145 7.90059 257.625 6.75158C257.104 5.60257 257.586 4.24844 258.715 3.68526Z" fill="white"/>
<path d="M282.101 3.71512C282.86 3.3253 283.77 3.38064 284.475 3.85941C285.183 4.33821 285.571 5.16399 285.487 6.01251C285.406 6.86126 284.865 7.59716 284.081 7.93166C282.928 8.42361 281.591 7.91387 281.057 6.77815C280.523 5.64265 280.985 4.28875 282.101 3.71512Z" fill="white"/>
<path d="M39.507 4.14919C40.7636 4.01152 41.8965 4.91151 42.0461 6.16639C42.1957 7.42127 41.3061 8.5624 40.0523 8.72391C38.7817 8.88744 37.6215 7.9835 37.4699 6.71173C37.3183 5.43995 38.2335 4.28871 39.507 4.14919Z" fill="white"/>
<path d="M0 26.3733C1.64776 28.0864 7.20784 26.3253 9.80848 27.4622C9.6034 27.5086 9.39694 27.5487 9.18942 27.5827C8.16367 27.7447 0.687484 27.8688 0.115249 27.4536L0 26.3733Z" fill="white"/>
</svg>
